<svg xmlns="http://www.w3.org/2000/svg" xmlns:xlink="http://www.w3.org/1999/xlink" viewBox="0 0 384 362.71"><defs><style>.cls-1,.cls-2{fill:#feffe7;}.cls-1,.cls-5,.cls-7,.cls-8,.cls-9{stroke:#45465a;}.cls-1,.cls-5,.cls-7,.cls-8{stroke-miterlimit:10;}.cls-1,.cls-5{stroke-width:16px;}.cls-3{clip-path:url(#clip-path);}.cls-4{fill:#ffd52b;}.cls-5,.cls-7,.cls-8,.cls-9{fill:none;}.cls-6{fill:#45465a;}.cls-7{stroke-width:7px;}.cls-8,.cls-9{stroke-width:10px;}.cls-9{stroke-linecap:round;stroke-linejoin:round;}</style><clipPath id="clip-path"><path class="cls-1" d="M367,98.16c-28-19-87-27-108-28,3-31-1-62-1-62-152-4-175,70-188,133-10.31,49.93-13,129-13,129-.42,9-.7,18.19-.82,27.49A205.51,205.51,0,0,0,331,306.16c-.69-10.9-1.84-20.67-2.95-28a1027.82,1027.82,0,0,0-23-111C324,153.16,345,127.16,367,98.16Z"/></clipPath></defs><g id="圖層_2" data-name="圖層 2"><g id="MingCat_彩色_圓_無底"><g id="MingCat"><path class="cls-2" d="M367,98.16c-28-19-87-27-108-28,3-31-1-62-1-62-152-4-175,70-188,133-10.31,49.93-13,129-13,129-.42,9-.7,18.19-.82,27.49A205.51,205.51,0,0,0,331,306.16c-.69-10.9-1.84-20.67-2.95-28a1027.82,1027.82,0,0,0-23-111C324,153.16,345,127.16,367,98.16Z"/><g class="cls-3"><ellipse id="Pot" class="cls-4" cx="272.19" cy="168.03" rx="111.81" ry="108.13"/></g><path class="cls-5" d="M367,98.16c-28-19-87-27-108-28,3-31-1-62-1-62-152-4-175,70-188,133-10.31,49.93-13,129-13,129-.42,9-.7,18.19-.82,27.49A205.51,205.51,0,0,0,331,306.16c-.69-10.9-1.84-20.67-2.95-28a1027.82,1027.82,0,0,0-23-111C324,153.16,345,127.16,367,98.16Z"/><path id="EyeL" class="cls-6" d="M131.56,111.55c-6,5-17.45,19.06-15.88,51.73a5.64,5.64,0,0,0,5.77,5.39c8.17-.24,17.3-4.78,20.55-14.51,7.45-20.86-.08-35.61-4.41-41.78A4.12,4.12,0,0,0,131.56,111.55Z"/><path id="EyeR" class="cls-6" d="M238.56,131.55c-6,5-17.45,19.06-15.88,51.73a5.64,5.64,0,0,0,5.77,5.39c8.17-.24,17.3-4.78,20.55-14.51,7.45-20.86-.08-35.61-4.41-41.78A4.12,4.12,0,0,0,238.56,131.55Z"/><path id="GlassLine" class="cls-7" d="M271.75,209.16v0Zm0,.71c-5,0-9,5-9,11.14s4,11.15,9,11.15,9-5,9-11.15S276.72,209.87,271.75,209.87Z"/><circle id="Glass" class="cls-8" cx="227.96" cy="159.14" r="49.5"/><path id="Mouse" class="cls-9" d="M124,208.16s-4,15,4,16,23-16,23-16-8,20,10,25,35-14,32-20"/><polygon id="Nose" class="cls-9" points="148 200.16 159 203.16 151 207.16 148 200.16"/><path class="cls-9" d="M315.09,208.63s14.48,15.44,33.91,12.53c20-3,26.5-14.5,26.5-24.5s-6.5-17.5-15-19c-7.88-1.39-13.5,3.5-15,10,0,0-1.5,9.5,5.5,11.5"/><path class="cls-9" d="M320.73,235.88S329,245.16,345,246.16s26-7,26-7"/><path class="cls-9" d="M58.61,169.93S35.93,176.09,19.33,162C2.25,147.49,2.87,132.82,8.73,123.36S25.1,110.59,34,114.13c8.24,3.28,10.67,11.19,8.27,18.21,0,0-4.15,9.87-11.92,7.68"/><path class="cls-9" d="M59.59,192.81s-10.17,7.14-26,4.45S9.9,184.51,9.9,184.51"/></g></g></g></svg>